<svg xmlns="http://www.w3.org/2000/svg" xmlns:xlink="http://www.w3.org/1999/xlink" width="1320" height="884.98"><rect width="1320" height="884.98" rx="5" ry="5" class="a"/><svg y="0%" x="0%"><circle cx="20" cy="20" r="6" fill="#ff5f58"/><circle cx="40" cy="20" r="6" fill="#ffbd2e"/><circle cx="60" cy="20" r="6" fill="#18c132"/></svg><svg height="824.98" viewBox="0 0 128 82.498" width="1280" x="15" xmlns="http://www.w3.org/2000/svg" xmlns:xlink="http://www.w3.org/1999/xlink" y="50"><style>@keyframes n{0%{transform:translateX(0)}.59%{transform:translateX(-128px)}1.31%{transform:translateX(-512px)}2.38%{transform:translateX(-640px)}3.19%{transform:translateX(-768px)}3.82%{transform:translateX(-896px)}4.31%{transform:translateX(-1024px)}4.71%{transform:translateX(-1152px)}4.98%{transform:translateX(-1280px)}5.33%{transform:translateX(-1408px)}5.72%{transform:translateX(-1536px)}6.22%{transform:translateX(-1664px)}7.23%{transform:translateX(-1920px)}7.24%{transform:translateX(-2048px)}9.38%{transform:translateX(-2944px)}22.93%{transform:translateX(-3072px)}25.03%{transform:translateX(-3456px)}38.05%{transform:translateX(-3584px)}39.43%{transform:translateX(-4096px)}53.36%{transform:translateX(-4224px)}54.59%{transform:translateX(-4608px)}67.26%{transform:translateX(-4736px)}68.9%{transform:translateX(-4864px)}68.91%{transform:translateX(-5248px)}71.56%{transform:translateX(-5376px)}72.04%{transform:translateX(-5504px)}72.86%{transform:translateX(-5632px)}73.22%{transform:translateX(-5760px)}75.52%{transform:translateX(-6144px)}75.53%{transform:translateX(-6272px)}83.87%{transform:translateX(-6528px)}83.94%{transform:translateX(-6784px)}84.69%{transform:translateX(-7040px)}84.7%{transform:translateX(-7168px)}to{transform:translateX(-7296px)}}.a{fill:#282d35}.f{fill:#71bef2}.g{white-space:pre}.h{fill:#a8cc8c}.i,.j,.k{fill:#71bef2;white-space:pre}.j,.k{fill:#a8cc8c}.k{fill:#b9c0cb}</style><g font-family="Monaco,Consolas,Menlo,'Bitstream Vera Sans Mono','Powerline Symbols',monospace" font-size="1.67"><defs><symbol id="1"><path class="f" d="M0 0h30v2.171H0z"/><text y="1.67" class="g">~/Projects/boby-alga-toolkit</text><path class="h" d="M30.06 0h1v2.171h-1z"/><text x="30.06" y="1.67" class="i"></text><path class="h" d="M31.062 0h8v2.171h-8z"/><text x="31.062" y="1.67" class="g"> main</text><text x="39.078" y="1.67" class="j"></text></symbol><symbol id="2"><path class="f" d="M0 0h30v2.171H0z"/><text y="1.67" class="g">~/Projects/boby-alga-toolkit</text><path class="h" d="M30.06 0h1v2.171h-1z"/><text x="30.06" y="1.67" class="i"></text><path class="h" d="M31.062 0h8v2.171h-8z"/><text x="31.062" y="1.67" class="g"> main</text><text x="39.078" y="1.67" class="j"></text><text x="41.082" y="1.67" class="k">stack</text></symbol><symbol id="3"><path class="f" d="M0 0h30v2.171H0z"/><text y="1.67" class="g">~/Projects/boby-alga-toolkit</text><path class="h" d="M30.06 0h1v2.171h-1z"/><text x="30.06" y="1.67" class="i"></text><path class="h" d="M31.062 0h8v2.171h-8z"/><text x="31.062" y="1.67" class="g"> main</text><text x="39.078" y="1.67" class="j"></text><text x="41.082" y="1.67" class="k">stack</text><text x="47.094" y="1.67" class="k">run</text></symbol><symbol id="4"><text y="1.67" class="k">🔥🔥🔥</text><text x="7.014" y="1.67" class="k">Bobby&apos;s</text><text x="15.03" y="1.67" class="k">Algebraic</text><text x="25.05" y="1.67" class="k">Graph</text><text x="31.062" y="1.67" class="k">Toolkit</text><text x="39.078" y="1.67" class="k">🔥🔥🔥</text></symbol><symbol id="5"><text y="1.67" class="k">Commands:</text></symbol><symbol id="6"><text x="1.002" y="1.67" class="k">random</text><text x="16.032" y="1.67" class="k">$n</text><text x="19.038" y="1.67" class="k">$p</text><text x="46.092" y="1.67" class="k">Generates</text><text x="56.112" y="1.67" class="k">random</text><text x="63.126" y="1.67" class="k">graph</text><text x="69.138" y="1.67" class="k">$n</text><text x="72.144" y="1.67" class="k">number</text><text x="79.158" y="1.67" class="k">of</text><text x="82.164" y="1.67" class="k">nodes</text></symbol><symbol id="7"><text x="46.092" y="1.67" class="k">$p</text><text x="49.098" y="1.67" class="k">probability</text><text x="61.122" y="1.67" class="k">of</text><text x="64.128" y="1.67" class="k">nodes</text><text x="70.14" y="1.67" class="k">to</text><text x="73.146" y="1.67" class="k">connect</text><text x="81.162" y="1.67" class="k">0.0</text><text x="85.17" y="1.67" class="k">-</text><text x="87.174" y="1.67" class="k">1.0</text></symbol><symbol id="8"><text x="1.002" y="1.67" class="k">add</text><text x="16.032" y="1.67" class="k">$phone</text><text x="46.092" y="1.67" class="k">Adds</text><text x="51.102" y="1.67" class="k">new</text><text x="55.11" y="1.67" class="k">user.</text></symbol><symbol id="9"><text x="1.002" y="1.67" class="k">remove</text><text x="16.032" y="1.67" class="k">$phone</text><text x="46.092" y="1.67" class="k">Removes</text><text x="54.108" y="1.67" class="k">a</text><text x="56.112" y="1.67" class="k">user.</text></symbol><symbol id="10"><text x="1.002" y="1.67" class="k">follow</text><text x="16.032" y="1.67" class="k">$phone_a</text><text x="25.05" y="1.67" class="k">$phone_b</text><text x="46.092" y="1.67" class="k">Make</text><text x="51.102" y="1.67" class="k">$phone_a</text><text x="60.12" y="1.67" class="k">follow</text><text x="67.134" y="1.67" class="k">$phone_b.</text></symbol><symbol id="11"><text x="1.002" y="1.67" class="k">show</text><text x="46.092" y="1.67" class="k">Show</text><text x="51.102" y="1.67" class="k">the</text><text x="55.11" y="1.67" class="k">current</text><text x="63.126" y="1.67" class="k">graph</text><text x="69.138" y="1.67" class="k">in</text><text x="72.144" y="1.67" class="k">your</text><text x="77.154" y="1.67" class="k">browser.</text></symbol><symbol id="12"><text x="1.002" y="1.67" class="k">followers</text><text x="16.032" y="1.67" class="k">$phone</text><text x="46.092" y="1.67" class="k">Show</text><text x="51.102" y="1.67" class="k">all</text><text x="55.11" y="1.67" class="k">followers</text><text x="65.13" y="1.67" class="k">of</text><text x="68.136" y="1.67" class="k">$phone</text><text x="75.15" y="1.67" class="k">in</text><text x="78.156" y="1.67" class="k">your</text><text x="83.166" y="1.67" class="k">browser.</text></symbol><symbol id="13"><text x="1.002" y="1.67" class="k">following</text><text x="16.032" y="1.67" class="k">$phone</text><text x="46.092" y="1.67" class="k">Show</text><text x="51.102" y="1.67" class="k">who</text><text x="55.11" y="1.67" class="k">the</text><text x="59.118" y="1.67" class="k">$phone</text><text x="66.132" y="1.67" class="k">follows</text><text x="74.148" y="1.67" class="k">in</text><text x="77.154" y="1.67" class="k">your</text><text x="82.164" y="1.67" class="k">browser.</text></symbol><symbol id="14"><text x="1.002" y="1.67" class="k">suggest</text><text x="16.032" y="1.67" class="k">$phone</text><text x="23.046" y="1.67" class="k">$count</text><text x="46.092" y="1.67" class="k">Shows</text><text x="52.104" y="1.67" class="k">up</text><text x="55.11" y="1.67" class="k">to</text><text x="58.116" y="1.67" class="k">$count</text><text x="65.13" y="1.67" class="k">`friends</text><text x="74.148" y="1.67" class="k">of</text><text x="77.154" y="1.67" class="k">friends`</text></symbol><symbol id="15"><text x="1.002" y="1.67" class="k">help</text><text x="46.092" y="1.67" class="k">Shows</text><text x="52.104" y="1.67" class="k">this</text><text x="57.114" y="1.67" class="k">screen.</text></symbol><symbol id="16"><text x="1.002" y="1.67" class="k">quit</text><text x="6.012" y="1.67" class="k">or</text><text x="9.018" y="1.67" class="k">q</text><text x="46.092" y="1.67" class="k">Exit.</text></symbol><symbol id="17"><text y="1.67" class="k">boby.dev</text><text x="9.018" y="1.67" class="k">&gt;</text></symbol><symbol id="18"><text y="1.67" class="k">boby.dev</text><text x="9.018" y="1.67" class="k">&gt;</text><text x="11.022" y="1.67" class="k">follow</text><text x="18.036" y="1.67" class="k">elon</text><text x="23.046" y="1.67" class="k">bitcoin</text></symbol><symbol id="19"><text y="1.67" class="k">boby.dev</text><text x="9.018" y="1.67" class="k">&gt;</text><text x="11.022" y="1.67" class="k">follow</text><text x="18.036" y="1.67" class="k">elon</text><text x="23.046" y="1.67" class="k">bobby</text></symbol><symbol id="20"><text y="1.67" class="k">boby.dev</text><text x="9.018" y="1.67" class="k">&gt;</text><text x="11.022" y="1.67" class="k">follow</text><text x="18.036" y="1.67" class="k">bitcoin</text><text x="26.052" y="1.67" class="k">greta</text></symbol><symbol id="21"><text y="1.67" class="k">boby.dev</text><text x="9.018" y="1.67" class="k">&gt;</text><text x="11.022" y="1.67" class="k">follow</text><text x="18.036" y="1.67" class="k">greta</text><text x="24.048" y="1.67" class="k">bobby</text></symbol><symbol id="22"><text y="1.67" class="k">boby.dev</text><text x="9.018" y="1.67" class="k">&gt;</text><text x="11.022" y="1.67" class="k">show</text></symbol><symbol id="23"><text y="1.67" class="k">https://dreampuf.github.io/GraphvizOnline/#digraph%20bobydev%0A%7B%0A%0A%0A%20%20node%20%5Bshape%3D%22circle%22%5D%0A%20%20%22bi</text></symbol><symbol id="24"><text y="1.67" class="k">tcoin%22%0A%20%20%22bobby%22%0A%20%20%22elon%22%0A%20%20%22greta%22%0A%20%20%22bitcoin%22%20-%3E%20%22greta%22%0A%20%20%22elon%2</text></symbol><symbol id="25"><text y="1.67" class="k">2%20-%3E%20%22bitcoin%22%0A%20%20%22elon%22%20-%3E%20%22bobby%22%0A%20%20%22greta%22%20-%3E%20%22bobby%22%0A%7D%0A</text></symbol><symbol id="a"><path fill="transparent" d="M0 0h128v38H0z"/></symbol><symbol id="b"><path fill="#6f7683" d="M0 0h1.102v2.171H0z"/></symbol></defs><path class="a" d="M0 0h128v82.498H0z"/><g style="animation-duration:23.561755s;animation-iteration-count:infinite;animation-name:n;animation-timing-function:steps(1,end)"><svg width="7424"><svg><use xlink:href="#a"/><use xlink:href="#b" x="-.004"/></svg><svg x="128"><use xlink:href="#a"/><use xlink:href="#b" x="-.004"/></svg><svg x="256"><use xlink:href="#a"/><use xlink:href="#b" x="40.996"/><use xlink:href="#1"/></svg><svg x="384"><use xlink:href="#a"/><use xlink:href="#b" x="40.996"/><use xlink:href="#1"/></svg><svg x="512"><use xlink:href="#a"/><use xlink:href="#b" x="40.996"/><use xlink:href="#1"/></svg><svg x="640"><use xlink:href="#a"/><use xlink:href="#b" x="41.996"/><path class="f" d="M0 0h30v2.171H0z"/><text y="1.67" class="g">~/Projects/boby-alga-toolkit</text><path class="h" d="M30.06 0h1v2.171h-1z"/><text x="30.06" y="1.67" class="i"></text><path class="h" d="M31.062 0h8v2.171h-8z"/><text x="31.062" y="1.67" class="g"> main</text><text x="39.078" y="1.67" class="j"></text><text x="41.082" y="1.67" class="k">s</text></svg><svg x="768"><use xlink:href="#a"/><use xlink:href="#b" x="42.996"/><path class="f" d="M0 0h30v2.171H0z"/><text y="1.67" class="g">~/Projects/boby-alga-toolkit</text><path class="h" d="M30.06 0h1v2.171h-1z"/><text x="30.06" y="1.67" class="i"></text><path class="h" d="M31.062 0h8v2.171h-8z"/><text x="31.062" y="1.67" class="g"> main</text><text x="39.078" y="1.67" class="j"></text><text x="41.082" y="1.67" class="k">st</text></svg><svg x="896"><use xlink:href="#a"/><use xlink:href="#b" x="43.996"/><path class="f" d="M0 0h30v2.171H0z"/><text y="1.67" class="g">~/Projects/boby-alga-toolkit</text><path class="h" d="M30.06 0h1v2.171h-1z"/><text x="30.06" y="1.67" class="i"></text><path class="h" d="M31.062 0h8v2.171h-8z"/><text x="31.062" y="1.67" class="g"> main</text><text x="39.078" y="1.67" class="j"></text><text x="41.082" y="1.67" class="k">sta</text></svg><svg x="1024"><use xlink:href="#a"/><use xlink:href="#b" x="44.996"/><path class="f" d="M0 0h30v2.171H0z"/><text y="1.67" class="g">~/Projects/boby-alga-toolkit</text><path class="h" d="M30.06 0h1v2.171h-1z"/><text x="30.06" y="1.67" class="i"></text><path class="h" d="M31.062 0h8v2.171h-8z"/><text x="31.062" y="1.67" class="g"> main</text><text x="39.078" y="1.67" class="j"></text><text x="41.082" y="1.67" class="k">stac</text></svg><svg x="1152"><use xlink:href="#a"/><use xlink:href="#b" x="45.996"/><use xlink:href="#2"/></svg><svg x="1280"><use xlink:href="#a"/><use xlink:href="#b" x="46.996"/><use xlink:href="#2"/></svg><svg x="1408"><use xlink:href="#a"/><use xlink:href="#b" x="47.996"/><path class="f" d="M0 0h30v2.171H0z"/><text y="1.67" class="g">~/Projects/boby-alga-toolkit</text><path class="h" d="M30.06 0h1v2.171h-1z"/><text x="30.06" y="1.67" class="i"></text><path class="h" d="M31.062 0h8v2.171h-8z"/><text x="31.062" y="1.67" class="g"> main</text><text x="39.078" y="1.67" class="j"></text><text x="41.082" y="1.67" class="k">stack</text><text x="47.094" y="1.67" class="k">r</text></svg><svg x="1536"><use xlink:href="#a"/><use xlink:href="#b" x="48.996"/><path class="f" d="M0 0h30v2.171H0z"/><text y="1.67" class="g">~/Projects/boby-alga-toolkit</text><path class="h" d="M30.06 0h1v2.171h-1z"/><text x="30.06" y="1.67" class="i"></text><path class="h" d="M31.062 0h8v2.171h-8z"/><text x="31.062" y="1.67" class="g"> main</text><text x="39.078" y="1.67" class="j"></text><text x="41.082" y="1.67" class="k">stack</text><text x="47.094" y="1.67" class="k">ru</text></svg><svg x="1664"><use xlink:href="#a"/><use xlink:href="#b" x="49.996"/><use xlink:href="#3"/></svg><svg x="1792"><use xlink:href="#a"/><use xlink:href="#b" x="49.996"/><use xlink:href="#3"/></svg><svg x="1920"><use xlink:href="#a"/><use xlink:href="#b" x="-.004" y="2.146"/><use xlink:href="#3"/></svg><svg x="2048"><use xlink:href="#a"/><use xlink:href="#b" x="-.004" y="2.146"/><use xlink:href="#3"/></svg><svg x="2176"><use xlink:href="#a"/><use xlink:href="#b" x="-.004" y="17.343"/><use xlink:href="#3"/><use xlink:href="#4" y="4.342"/><use xlink:href="#5" y="8.684"/><use xlink:href="#6" y="13.026"/><use xlink:href="#7" y="15.197"/></svg><svg x="2304"><use xlink:href="#a"/><use xlink:href="#b" x="-.004" y="23.856"/><use xlink:href="#3"/><use xlink:href="#4" y="4.342"/><use xlink:href="#5" y="8.684"/><use xlink:href="#6" y="13.026"/><use xlink:href="#7" y="15.197"/><use xlink:href="#8" y="17.368"/><use xlink:href="#9" y="19.539"/><use xlink:href="#10" y="21.71"/></svg><svg x="2432"><use xlink:href="#a"/><use xlink:href="#b" x="-.004" y="30.369"/><use xlink:href="#3"/><use xlink:href="#4" y="4.342"/><use xlink:href="#5" y="8.684"/><use xlink:href="#6" y="13.026"/><use xlink:href="#7" y="15.197"/><use xlink:href="#8" y="17.368"/><use xlink:href="#9" y="19.539"/><use xlink:href="#10" y="21.71"/><use xlink:href="#11" y="23.881"/><use xlink:href="#12" y="26.052"/><use xlink:href="#13" y="28.223"/></svg><svg x="2560"><use xlink:href="#a"/><use xlink:href="#b" x="-.004" y="36.882"/><use xlink:href="#3"/><use xlink:href="#4" y="4.342"/><use xlink:href="#5" y="8.684"/><use xlink:href="#6" y="13.026"/><use xlink:href="#7" y="15.197"/><use xlink:href="#8" y="17.368"/><use xlink:href="#9" y="19.539"/><use xlink:href="#10" y="21.71"/><use xlink:href="#11" y="23.881"/><use xlink:href="#12" y="26.052"/><use xlink:href="#13" y="28.223"/><use xlink:href="#14" y="30.394"/><use xlink:href="#15" y="32.565"/><use xlink:href="#16" y="34.736"/></svg><svg x="2688"><use xlink:href="#a"/><use xlink:href="#b" x="-.004" y="39.053"/><use xlink:href="#3"/><use xlink:href="#4" y="4.342"/><use xlink:href="#5" y="8.684"/><use xlink:href="#6" y="13.026"/><use xlink:href="#7" y="15.197"/><use xlink:href="#8" y="17.368"/><use xlink:href="#9" y="19.539"/><use xlink:href="#10" y="21.71"/><use xlink:href="#11" y="23.881"/><use xlink:href="#12" y="26.052"/><use xlink:href="#13" y="28.223"/><use xlink:href="#14" y="30.394"/><use xlink:href="#15" y="32.565"/><use xlink:href="#16" y="34.736"/></svg><svg x="2816"><use xlink:href="#a"/><use xlink:href="#b" x="-.004" y="39.053"/><use xlink:href="#3"/><use xlink:href="#4" y="4.342"/><use xlink:href="#5" y="8.684"/><use xlink:href="#6" y="13.026"/><use xlink:href="#7" y="15.197"/><use xlink:href="#8" y="17.368"/><use xlink:href="#9" y="19.539"/><use xlink:href="#10" y="21.71"/><use xlink:href="#11" y="23.881"/><use xlink:href="#12" y="26.052"/><use xlink:href="#13" y="28.223"/><use xlink:href="#14" y="30.394"/><use xlink:href="#15" y="32.565"/><use xlink:href="#16" y="34.736"/></svg><svg x="2944"><use xlink:href="#a"/><use xlink:href="#b" x="10.996" y="39.053"/><use xlink:href="#3"/><use xlink:href="#4" y="4.342"/><use xlink:href="#5" y="8.684"/><use xlink:href="#6" y="13.026"/><use xlink:href="#7" y="15.197"/><use xlink:href="#8" y="17.368"/><use xlink:href="#9" y="19.539"/><use xlink:href="#10" y="21.71"/><use xlink:href="#11" y="23.881"/><use xlink:href="#12" y="26.052"/><use xlink:href="#13" y="28.223"/><use xlink:href="#14" y="30.394"/><use xlink:href="#15" y="32.565"/><use xlink:href="#16" y="34.736"/><use xlink:href="#17" y="39.078"/></svg><svg x="3072"><use xlink:href="#a"/><use xlink:href="#b" x="29.996" y="39.053"/><use xlink:href="#3"/><use xlink:href="#4" y="4.342"/><use xlink:href="#5" y="8.684"/><use xlink:href="#6" y="13.026"/><use xlink:href="#7" y="15.197"/><use xlink:href="#8" y="17.368"/><use xlink:href="#9" y="19.539"/><use xlink:href="#10" y="21.71"/><use xlink:href="#11" y="23.881"/><use xlink:href="#12" y="26.052"/><use xlink:href="#13" y="28.223"/><use xlink:href="#14" y="30.394"/><use xlink:href="#15" y="32.565"/><use xlink:href="#16" y="34.736"/><use xlink:href="#18" y="39.078"/></svg><svg x="3200"><use xlink:href="#a"/><use xlink:href="#b" x="-.004" y="41.224"/><use xlink:href="#3"/><use xlink:href="#4" y="4.342"/><use xlink:href="#5" y="8.684"/><use xlink:href="#6" y="13.026"/><use xlink:href="#7" y="15.197"/><use xlink:href="#8" y="17.368"/><use xlink:href="#9" y="19.539"/><use xlink:href="#10" y="21.71"/><use xlink:href="#11" y="23.881"/><use xlink:href="#12" y="26.052"/><use xlink:href="#13" y="28.223"/><use xlink:href="#14" y="30.394"/><use xlink:href="#15" y="32.565"/><use xlink:href="#16" y="34.736"/><use xlink:href="#18" y="39.078"/></svg><svg x="3328"><use xlink:href="#a"/><use xlink:href="#b" x="-.004" y="41.224"/><use xlink:href="#3"/><use xlink:href="#4" y="4.342"/><use xlink:href="#5" y="8.684"/><use xlink:href="#6" y="13.026"/><use xlink:href="#7" y="15.197"/><use xlink:href="#8" y="17.368"/><use xlink:href="#9" y="19.539"/><use xlink:href="#10" y="21.71"/><use xlink:href="#11" y="23.881"/><use xlink:href="#12" y="26.052"/><use xlink:href="#13" y="28.223"/><use xlink:href="#14" y="30.394"/><use xlink:href="#15" y="32.565"/><use xlink:href="#16" y="34.736"/><use xlink:href="#18" y="39.078"/></svg><svg x="3456"><use xlink:href="#a"/><use xlink:href="#b" x="10.996" y="41.224"/><use xlink:href="#3"/><use xlink:href="#4" y="4.342"/><use xlink:href="#5" y="8.684"/><use xlink:href="#6" y="13.026"/><use xlink:href="#7" y="15.197"/><use xlink:href="#8" y="17.368"/><use xlink:href="#9" y="19.539"/><use xlink:href="#10" y="21.71"/><use xlink:href="#11" y="23.881"/><use xlink:href="#12" y="26.052"/><use xlink:href="#13" y="28.223"/><use xlink:href="#14" y="30.394"/><use xlink:href="#15" y="32.565"/><use xlink:href="#16" y="34.736"/><use xlink:href="#18" y="39.078"/><use xlink:href="#17" y="41.249"/></svg><svg x="3584"><use xlink:href="#a"/><use xlink:href="#b" x="27.996" y="41.224"/><use xlink:href="#3"/><use xlink:href="#4" y="4.342"/><use xlink:href="#5" y="8.684"/><use xlink:href="#6" y="13.026"/><use xlink:href="#7" y="15.197"/><use xlink:href="#8" y="17.368"/><use xlink:href="#9" y="19.539"/><use xlink:href="#10" y="21.71"/><use xlink:href="#11" y="23.881"/><use xlink:href="#12" y="26.052"/><use xlink:href="#13" y="28.223"/><use xlink:href="#14" y="30.394"/><use xlink:href="#15" y="32.565"/><use xlink:href="#16" y="34.736"/><use xlink:href="#18" y="39.078"/><use xlink:href="#19" y="41.249"/></svg><svg x="3712"><use xlink:href="#a"/><use xlink:href="#b" x="-.004" y="43.395"/><use xlink:href="#3"/><use xlink:href="#4" y="4.342"/><use xlink:href="#5" y="8.684"/><use xlink:href="#6" y="13.026"/><use xlink:href="#7" y="15.197"/><use xlink:href="#8" y="17.368"/><use xlink:href="#9" y="19.539"/><use xlink:href="#10" y="21.71"/><use xlink:href="#11" y="23.881"/><use xlink:href="#12" y="26.052"/><use xlink:href="#13" y="28.223"/><use xlink:href="#14" y="30.394"/><use xlink:href="#15" y="32.565"/><use xlink:href="#16" y="34.736"/><use xlink:href="#18" y="39.078"/><use xlink:href="#19" y="41.249"/></svg><svg x="3840"><use xlink:href="#a"/><use xlink:href="#b" x="-.004" y="43.395"/><use xlink:href="#3"/><use xlink:href="#4" y="4.342"/><use xlink:href="#5" y="8.684"/><use xlink:href="#6" y="13.026"/><use xlink:href="#7" y="15.197"/><use xlink:href="#8" y="17.368"/><use xlink:href="#9" y="19.539"/><use xlink:href="#10" y="21.71"/><use xlink:href="#11" y="23.881"/><use xlink:href="#12" y="26.052"/><use xlink:href="#13" y="28.223"/><use xlink:href="#14" y="30.394"/><use xlink:href="#15" y="32.565"/><use xlink:href="#16" y="34.736"/><use xlink:href="#18" y="39.078"/><use xlink:href="#19" y="41.249"/></svg><svg x="3968"><use xlink:href="#a"/><use xlink:href="#b" x="-.004" y="43.395"/><use xlink:href="#3"/><use xlink:href="#4" y="4.342"/><use xlink:href="#5" y="8.684"/><use xlink:href="#6" y="13.026"/><use xlink:href="#7" y="15.197"/><use xlink:href="#8" y="17.368"/><use xlink:href="#9" y="19.539"/><use xlink:href="#10" y="21.71"/><use xlink:href="#11" y="23.881"/><use xlink:href="#12" y="26.052"/><use xlink:href="#13" y="28.223"/><use xlink:href="#14" y="30.394"/><use xlink:href="#15" y="32.565"/><use xlink:href="#16" y="34.736"/><use xlink:href="#18" y="39.078"/><use xlink:href="#19" y="41.249"/></svg><svg x="4096"><use xlink:href="#a"/><use xlink:href="#b" x="10.996" y="43.395"/><use xlink:href="#3"/><use xlink:href="#4" y="4.342"/><use xlink:href="#5" y="8.684"/><use xlink:href="#6" y="13.026"/><use xlink:href="#7" y="15.197"/><use xlink:href="#8" y="17.368"/><use xlink:href="#9" y="19.539"/><use xlink:href="#10" y="21.71"/><use xlink:href="#11" y="23.881"/><use xlink:href="#12" y="26.052"/><use xlink:href="#13" y="28.223"/><use xlink:href="#14" y="30.394"/><use xlink:href="#15" y="32.565"/><use xlink:href="#16" y="34.736"/><use xlink:href="#18" y="39.078"/><use xlink:href="#19" y="41.249"/><use xlink:href="#17" y="43.42"/></svg><svg x="4224"><use xlink:href="#a"/><use xlink:href="#b" x="30.996" y="43.395"/><use xlink:href="#3"/><use xlink:href="#4" y="4.342"/><use xlink:href="#5" y="8.684"/><use xlink:href="#6" y="13.026"/><use xlink:href="#7" y="15.197"/><use xlink:href="#8" y="17.368"/><use xlink:href="#9" y="19.539"/><use xlink:href="#10" y="21.71"/><use xlink:href="#11" y="23.881"/><use xlink:href="#12" y="26.052"/><use xlink:href="#13" y="28.223"/><use xlink:href="#14" y="30.394"/><use xlink:href="#15" y="32.565"/><use xlink:href="#16" y="34.736"/><use xlink:href="#18" y="39.078"/><use xlink:href="#19" y="41.249"/><use xlink:href="#20" y="43.42"/></svg><svg x="4352"><use xlink:href="#a"/><use xlink:href="#b" x="-.004" y="45.566"/><use xlink:href="#3"/><use xlink:href="#4" y="4.342"/><use xlink:href="#5" y="8.684"/><use xlink:href="#6" y="13.026"/><use xlink:href="#7" y="15.197"/><use xlink:href="#8" y="17.368"/><use xlink:href="#9" y="19.539"/><use xlink:href="#10" y="21.71"/><use xlink:href="#11" y="23.881"/><use xlink:href="#12" y="26.052"/><use xlink:href="#13" y="28.223"/><use xlink:href="#14" y="30.394"/><use xlink:href="#15" y="32.565"/><use xlink:href="#16" y="34.736"/><use xlink:href="#18" y="39.078"/><use xlink:href="#19" y="41.249"/><use xlink:href="#20" y="43.42"/></svg><svg x="4480"><use xlink:href="#a"/><use xlink:href="#b" x="-.004" y="45.566"/><use xlink:href="#3"/><use xlink:href="#4" y="4.342"/><use xlink:href="#5" y="8.684"/><use xlink:href="#6" y="13.026"/><use xlink:href="#7" y="15.197"/><use xlink:href="#8" y="17.368"/><use xlink:href="#9" y="19.539"/><use xlink:href="#10" y="21.71"/><use xlink:href="#11" y="23.881"/><use xlink:href="#12" y="26.052"/><use xlink:href="#13" y="28.223"/><use xlink:href="#14" y="30.394"/><use xlink:href="#15" y="32.565"/><use xlink:href="#16" y="34.736"/><use xlink:href="#18" y="39.078"/><use xlink:href="#19" y="41.249"/><use xlink:href="#20" y="43.42"/></svg><svg x="4608"><use xlink:href="#a"/><use xlink:href="#b" x="10.996" y="45.566"/><use xlink:href="#3"/><use xlink:href="#4" y="4.342"/><use xlink:href="#5" y="8.684"/><use xlink:href="#6" y="13.026"/><use xlink:href="#7" y="15.197"/><use xlink:href="#8" y="17.368"/><use xlink:href="#9" y="19.539"/><use xlink:href="#10" y="21.71"/><use xlink:href="#11" y="23.881"/><use xlink:href="#12" y="26.052"/><use xlink:href="#13" y="28.223"/><use xlink:href="#14" y="30.394"/><use xlink:href="#15" y="32.565"/><use xlink:href="#16" y="34.736"/><use xlink:href="#18" y="39.078"/><use xlink:href="#19" y="41.249"/><use xlink:href="#20" y="43.42"/><use xlink:href="#17" y="45.591"/></svg><svg x="4736"><use xlink:href="#a"/><use xlink:href="#b" x="28.996" y="45.566"/><use xlink:href="#3"/><use xlink:href="#4" y="4.342"/><use xlink:href="#5" y="8.684"/><use xlink:href="#6" y="13.026"/><use xlink:href="#7" y="15.197"/><use xlink:href="#8" y="17.368"/><use xlink:href="#9" y="19.539"/><use xlink:href="#10" y="21.71"/><use xlink:href="#11" y="23.881"/><use xlink:href="#12" y="26.052"/><use xlink:href="#13" y="28.223"/><use xlink:href="#14" y="30.394"/><use xlink:href="#15" y="32.565"/><use xlink:href="#16" y="34.736"/><use xlink:href="#18" y="39.078"/><use xlink:href="#19" y="41.249"/><use xlink:href="#20" y="43.42"/><use xlink:href="#21" y="45.591"/></svg><svg x="4864"><use xlink:href="#a"/><use xlink:href="#b" x="-.004" y="47.737"/><use xlink:href="#3"/><use xlink:href="#4" y="4.342"/><use xlink:href="#5" y="8.684"/><use xlink:href="#6" y="13.026"/><use xlink:href="#7" y="15.197"/><use xlink:href="#8" y="17.368"/><use xlink:href="#9" y="19.539"/><use xlink:href="#10" y="21.71"/><use xlink:href="#11" y="23.881"/><use xlink:href="#12" y="26.052"/><use xlink:href="#13" y="28.223"/><use xlink:href="#14" y="30.394"/><use xlink:href="#15" y="32.565"/><use xlink:href="#16" y="34.736"/><use xlink:href="#18" y="39.078"/><use xlink:href="#19" y="41.249"/><use xlink:href="#20" y="43.42"/><use xlink:href="#21" y="45.591"/></svg><svg x="4992"><use xlink:href="#a"/><use xlink:href="#b" x="-.004" y="47.737"/><use xlink:href="#3"/><use xlink:href="#4" y="4.342"/><use xlink:href="#5" y="8.684"/><use xlink:href="#6" y="13.026"/><use xlink:href="#7" y="15.197"/><use xlink:href="#8" y="17.368"/><use xlink:href="#9" y="19.539"/><use xlink:href="#10" y="21.71"/><use xlink:href="#11" y="23.881"/><use xlink:href="#12" y="26.052"/><use xlink:href="#13" y="28.223"/><use xlink:href="#14" y="30.394"/><use xlink:href="#15" y="32.565"/><use xlink:href="#16" y="34.736"/><use xlink:href="#18" y="39.078"/><use xlink:href="#19" y="41.249"/><use xlink:href="#20" y="43.42"/><use xlink:href="#21" y="45.591"/></svg><svg x="5120"><use xlink:href="#a"/><use xlink:href="#b" x="-.004" y="47.737"/><use xlink:href="#3"/><use xlink:href="#4" y="4.342"/><use xlink:href="#5" y="8.684"/><use xlink:href="#6" y="13.026"/><use xlink:href="#7" y="15.197"/><use xlink:href="#8" y="17.368"/><use xlink:href="#9" y="19.539"/><use xlink:href="#10" y="21.71"/><use xlink:href="#11" y="23.881"/><use xlink:href="#12" y="26.052"/><use xlink:href="#13" y="28.223"/><use xlink:href="#14" y="30.394"/><use xlink:href="#15" y="32.565"/><use xlink:href="#16" y="34.736"/><use xlink:href="#18" y="39.078"/><use xlink:href="#19" y="41.249"/><use xlink:href="#20" y="43.42"/><use xlink:href="#21" y="45.591"/></svg><svg x="5248"><use xlink:href="#a"/><use xlink:href="#b" x="10.996" y="47.737"/><use xlink:href="#3"/><use xlink:href="#4" y="4.342"/><use xlink:href="#5" y="8.684"/><use xlink:href="#6" y="13.026"/><use xlink:href="#7" y="15.197"/><use xlink:href="#8" y="17.368"/><use xlink:href="#9" y="19.539"/><use xlink:href="#10" y="21.71"/><use xlink:href="#11" y="23.881"/><use xlink:href="#12" y="26.052"/><use xlink:href="#13" y="28.223"/><use xlink:href="#14" y="30.394"/><use xlink:href="#15" y="32.565"/><use xlink:href="#16" y="34.736"/><use xlink:href="#18" y="39.078"/><use xlink:href="#19" y="41.249"/><use xlink:href="#20" y="43.42"/><use xlink:href="#21" y="45.591"/><use xlink:href="#17" y="47.762"/></svg><svg x="5376"><use xlink:href="#a"/><use xlink:href="#b" x="11.996" y="47.737"/><use xlink:href="#3"/><use xlink:href="#4" y="4.342"/><use xlink:href="#5" y="8.684"/><use xlink:href="#6" y="13.026"/><use xlink:href="#7" y="15.197"/><use xlink:href="#8" y="17.368"/><use xlink:href="#9" y="19.539"/><use xlink:href="#10" y="21.71"/><use xlink:href="#11" y="23.881"/><use xlink:href="#12" y="26.052"/><use xlink:href="#13" y="28.223"/><use xlink:href="#14" y="30.394"/><use xlink:href="#15" y="32.565"/><use xlink:href="#16" y="34.736"/><use xlink:href="#18" y="39.078"/><use xlink:href="#19" y="41.249"/><use xlink:href="#20" y="43.42"/><use xlink:href="#21" y="45.591"/><text y="49.432" class="k">boby.dev</text><text x="9.018" y="49.432" class="k">&gt;</text><text x="11.022" y="49.432" class="k">s</text></svg><svg x="5504"><use xlink:href="#a"/><use xlink:href="#b" x="12.996" y="47.737"/><use xlink:href="#3"/><use xlink:href="#4" y="4.342"/><use xlink:href="#5" y="8.684"/><use xlink:href="#6" y="13.026"/><use xlink:href="#7" y="15.197"/><use xlink:href="#8" y="17.368"/><use xlink:href="#9" y="19.539"/><use xlink:href="#10" y="21.71"/><use xlink:href="#11" y="23.881"/><use xlink:href="#12" y="26.052"/><use xlink:href="#13" y="28.223"/><use xlink:href="#14" y="30.394"/><use xlink:href="#15" y="32.565"/><use xlink:href="#16" y="34.736"/><use xlink:href="#18" y="39.078"/><use xlink:href="#19" y="41.249"/><use xlink:href="#20" y="43.42"/><use xlink:href="#21" y="45.591"/><text y="49.432" class="k">boby.dev</text><text x="9.018" y="49.432" class="k">&gt;</text><text x="11.022" y="49.432" class="k">sh</text></svg><svg x="5632"><use xlink:href="#a"/><use xlink:href="#b" x="13.996" y="47.737"/><use xlink:href="#3"/><use xlink:href="#4" y="4.342"/><use xlink:href="#5" y="8.684"/><use xlink:href="#6" y="13.026"/><use xlink:href="#7" y="15.197"/><use xlink:href="#8" y="17.368"/><use xlink:href="#9" y="19.539"/><use xlink:href="#10" y="21.71"/><use xlink:href="#11" y="23.881"/><use xlink:href="#12" y="26.052"/><use xlink:href="#13" y="28.223"/><use xlink:href="#14" y="30.394"/><use xlink:href="#15" y="32.565"/><use xlink:href="#16" y="34.736"/><use xlink:href="#18" y="39.078"/><use xlink:href="#19" y="41.249"/><use xlink:href="#20" y="43.42"/><use xlink:href="#21" y="45.591"/><text y="49.432" class="k">boby.dev</text><text x="9.018" y="49.432" class="k">&gt;</text><text x="11.022" y="49.432" class="k">sho</text></svg><svg x="5760"><use xlink:href="#a"/><use xlink:href="#b" x="14.996" y="47.737"/><use xlink:href="#3"/><use xlink:href="#4" y="4.342"/><use xlink:href="#5" y="8.684"/><use xlink:href="#6" y="13.026"/><use xlink:href="#7" y="15.197"/><use xlink:href="#8" y="17.368"/><use xlink:href="#9" y="19.539"/><use xlink:href="#10" y="21.71"/><use xlink:href="#11" y="23.881"/><use xlink:href="#12" y="26.052"/><use xlink:href="#13" y="28.223"/><use xlink:href="#14" y="30.394"/><use xlink:href="#15" y="32.565"/><use xlink:href="#16" y="34.736"/><use xlink:href="#18" y="39.078"/><use xlink:href="#19" y="41.249"/><use xlink:href="#20" y="43.42"/><use xlink:href="#21" y="45.591"/><use xlink:href="#22" y="47.762"/></svg><svg x="5888"><use xlink:href="#a"/><use xlink:href="#b" x="-.004" y="49.908"/><use xlink:href="#3"/><use xlink:href="#4" y="4.342"/><use xlink:href="#5" y="8.684"/><use xlink:href="#6" y="13.026"/><use xlink:href="#7" y="15.197"/><use xlink:href="#8" y="17.368"/><use xlink:href="#9" y="19.539"/><use xlink:href="#10" y="21.71"/><use xlink:href="#11" y="23.881"/><use xlink:href="#12" y="26.052"/><use xlink:href="#13" y="28.223"/><use xlink:href="#14" y="30.394"/><use xlink:href="#15" y="32.565"/><use xlink:href="#16" y="34.736"/><use xlink:href="#18" y="39.078"/><use xlink:href="#19" y="41.249"/><use xlink:href="#20" y="43.42"/><use xlink:href="#21" y="45.591"/><use xlink:href="#22" y="47.762"/></svg><svg x="6016"><use xlink:href="#a"/><use xlink:href="#b" x="-.004" y="49.908"/><use xlink:href="#3"/><use xlink:href="#4" y="4.342"/><use xlink:href="#5" y="8.684"/><use xlink:href="#6" y="13.026"/><use xlink:href="#7" y="15.197"/><use xlink:href="#8" y="17.368"/><use xlink:href="#9" y="19.539"/><use xlink:href="#10" y="21.71"/><use xlink:href="#11" y="23.881"/><use xlink:href="#12" y="26.052"/><use xlink:href="#13" y="28.223"/><use xlink:href="#14" y="30.394"/><use xlink:href="#15" y="32.565"/><use xlink:href="#16" y="34.736"/><use xlink:href="#18" y="39.078"/><use xlink:href="#19" y="41.249"/><use xlink:href="#20" y="43.42"/><use xlink:href="#21" y="45.591"/><use xlink:href="#22" y="47.762"/></svg><svg x="6144"><use xlink:href="#a"/><use xlink:href="#b" x="-.004" y="56.421"/><use xlink:href="#3"/><use xlink:href="#4" y="4.342"/><use xlink:href="#5" y="8.684"/><use xlink:href="#6" y="13.026"/><use xlink:href="#7" y="15.197"/><use xlink:href="#8" y="17.368"/><use xlink:href="#9" y="19.539"/><use xlink:href="#10" y="21.71"/><use xlink:href="#11" y="23.881"/><use xlink:href="#12" y="26.052"/><use xlink:href="#13" y="28.223"/><use xlink:href="#14" y="30.394"/><use xlink:href="#15" y="32.565"/><use xlink:href="#16" y="34.736"/><use xlink:href="#18" y="39.078"/><use xlink:href="#19" y="41.249"/><use xlink:href="#20" y="43.42"/><use xlink:href="#21" y="45.591"/><use xlink:href="#22" y="47.762"/><use xlink:href="#23" y="49.933"/><use xlink:href="#24" y="52.104"/><use xlink:href="#25" y="54.275"/></svg><svg x="6272"><use xlink:href="#a"/><use xlink:href="#b" x="10.996" y="56.421"/><use xlink:href="#3"/><use xlink:href="#4" y="4.342"/><use xlink:href="#5" y="8.684"/><use xlink:href="#6" y="13.026"/><use xlink:href="#7" y="15.197"/><use xlink:href="#8" y="17.368"/><use xlink:href="#9" y="19.539"/><use xlink:href="#10" y="21.71"/><use xlink:href="#11" y="23.881"/><use xlink:href="#12" y="26.052"/><use xlink:href="#13" y="28.223"/><use xlink:href="#14" y="30.394"/><use xlink:href="#15" y="32.565"/><use xlink:href="#16" y="34.736"/><use xlink:href="#18" y="39.078"/><use xlink:href="#19" y="41.249"/><use xlink:href="#20" y="43.42"/><use xlink:href="#21" y="45.591"/><use xlink:href="#22" y="47.762"/><use xlink:href="#23" y="49.933"/><use xlink:href="#24" y="52.104"/><use xlink:href="#25" y="54.275"/><use xlink:href="#17" y="56.446"/></svg><svg x="6400"><use xlink:href="#a"/><use xlink:href="#b" x="-.004" y="58.592"/><use xlink:href="#3"/><use xlink:href="#4" y="4.342"/><use xlink:href="#5" y="8.684"/><use xlink:href="#6" y="13.026"/><use xlink:href="#7" y="15.197"/><use xlink:href="#8" y="17.368"/><use xlink:href="#9" y="19.539"/><use xlink:href="#10" y="21.71"/><use xlink:href="#11" y="23.881"/><use xlink:href="#12" y="26.052"/><use xlink:href="#13" y="28.223"/><use xlink:href="#14" y="30.394"/><use xlink:href="#15" y="32.565"/><use xlink:href="#16" y="34.736"/><use xlink:href="#18" y="39.078"/><use xlink:href="#19" y="41.249"/><use xlink:href="#20" y="43.42"/><use xlink:href="#21" y="45.591"/><use xlink:href="#22" y="47.762"/><use xlink:href="#23" y="49.933"/><use xlink:href="#24" y="52.104"/><use xlink:href="#25" y="54.275"/><use xlink:href="#17" y="56.446"/></svg><svg x="6528"><use xlink:href="#a"/><use xlink:href="#b" x="-.004" y="58.592"/><use xlink:href="#3"/><use xlink:href="#4" y="4.342"/><use xlink:href="#5" y="8.684"/><use xlink:href="#6" y="13.026"/><use xlink:href="#7" y="15.197"/><use xlink:href="#8" y="17.368"/><use xlink:href="#9" y="19.539"/><use xlink:href="#10" y="21.71"/><use xlink:href="#11" y="23.881"/><use xlink:href="#12" y="26.052"/><use xlink:href="#13" y="28.223"/><use xlink:href="#14" y="30.394"/><use xlink:href="#15" y="32.565"/><use xlink:href="#16" y="34.736"/><use xlink:href="#18" y="39.078"/><use xlink:href="#19" y="41.249"/><use xlink:href="#20" y="43.42"/><use xlink:href="#21" y="45.591"/><use xlink:href="#22" y="47.762"/><use xlink:href="#23" y="49.933"/><use xlink:href="#24" y="52.104"/><use xlink:href="#25" y="54.275"/><use xlink:href="#17" y="56.446"/></svg><svg x="6656"><use xlink:href="#a"/><use xlink:href="#b" x="-.004" y="58.592"/><use xlink:href="#3"/><use xlink:href="#4" y="4.342"/><use xlink:href="#5" y="8.684"/><use xlink:href="#6" y="13.026"/><use xlink:href="#7" y="15.197"/><use xlink:href="#8" y="17.368"/><use xlink:href="#9" y="19.539"/><use xlink:href="#10" y="21.71"/><use xlink:href="#11" y="23.881"/><use xlink:href="#12" y="26.052"/><use xlink:href="#13" y="28.223"/><use xlink:href="#14" y="30.394"/><use xlink:href="#15" y="32.565"/><use xlink:href="#16" y="34.736"/><use xlink:href="#18" y="39.078"/><use xlink:href="#19" y="41.249"/><use xlink:href="#20" y="43.42"/><use xlink:href="#21" y="45.591"/><use xlink:href="#22" y="47.762"/><use xlink:href="#23" y="49.933"/><use xlink:href="#24" y="52.104"/><use xlink:href="#25" y="54.275"/><use xlink:href="#17" y="56.446"/></svg><svg x="6784"><use xlink:href="#a"/><use xlink:href="#b" x="-.004" y="58.592"/><use xlink:href="#3"/><use xlink:href="#4" y="4.342"/><use xlink:href="#5" y="8.684"/><use xlink:href="#6" y="13.026"/><use xlink:href="#7" y="15.197"/><use xlink:href="#8" y="17.368"/><use xlink:href="#9" y="19.539"/><use xlink:href="#10" y="21.71"/><use xlink:href="#11" y="23.881"/><use xlink:href="#12" y="26.052"/><use xlink:href="#13" y="28.223"/><use xlink:href="#14" y="30.394"/><use xlink:href="#15" y="32.565"/><use xlink:href="#16" y="34.736"/><use xlink:href="#18" y="39.078"/><use xlink:href="#19" y="41.249"/><use xlink:href="#20" y="43.42"/><use xlink:href="#21" y="45.591"/><use xlink:href="#22" y="47.762"/><use xlink:href="#23" y="49.933"/><use xlink:href="#24" y="52.104"/><use xlink:href="#25" y="54.275"/><use xlink:href="#17" y="56.446"/></svg><svg x="6912"><use xlink:href="#a"/><use xlink:href="#b" x="40.996" y="58.592"/><use xlink:href="#3"/><use xlink:href="#4" y="4.342"/><use xlink:href="#5" y="8.684"/><use xlink:href="#6" y="13.026"/><use xlink:href="#7" y="15.197"/><use xlink:href="#8" y="17.368"/><use xlink:href="#9" y="19.539"/><use xlink:href="#10" y="21.71"/><use xlink:href="#11" y="23.881"/><use xlink:href="#12" y="26.052"/><use xlink:href="#13" y="28.223"/><use xlink:href="#14" y="30.394"/><use xlink:href="#15" y="32.565"/><use xlink:href="#16" y="34.736"/><use xlink:href="#18" y="39.078"/><use xlink:href="#19" y="41.249"/><use xlink:href="#20" y="43.42"/><use xlink:href="#21" y="45.591"/><use xlink:href="#22" y="47.762"/><use xlink:href="#23" y="49.933"/><use xlink:href="#24" y="52.104"/><use xlink:href="#25" y="54.275"/><use xlink:href="#17" y="56.446"/><use xlink:href="#1" y="58.617"/></svg><svg x="7040"><use xlink:href="#a"/><use xlink:href="#b" x="40.996" y="58.592"/><use xlink:href="#3"/><use xlink:href="#4" y="4.342"/><use xlink:href="#5" y="8.684"/><use xlink:href="#6" y="13.026"/><use xlink:href="#7" y="15.197"/><use xlink:href="#8" y="17.368"/><use xlink:href="#9" y="19.539"/><use xlink:href="#10" y="21.71"/><use xlink:href="#11" y="23.881"/><use xlink:href="#12" y="26.052"/><use xlink:href="#13" y="28.223"/><use xlink:href="#14" y="30.394"/><use xlink:href="#15" y="32.565"/><use xlink:href="#16" y="34.736"/><use xlink:href="#18" y="39.078"/><use xlink:href="#19" y="41.249"/><use xlink:href="#20" y="43.42"/><use xlink:href="#21" y="45.591"/><use xlink:href="#22" y="47.762"/><use xlink:href="#23" y="49.933"/><use xlink:href="#24" y="52.104"/><use xlink:href="#25" y="54.275"/><use xlink:href="#17" y="56.446"/><use xlink:href="#1" y="58.617"/></svg><svg x="7168"><use xlink:href="#a"/><use xlink:href="#b" x="40.996" y="58.592"/><use xlink:href="#3"/><use xlink:href="#4" y="4.342"/><use xlink:href="#5" y="8.684"/><use xlink:href="#6" y="13.026"/><use xlink:href="#7" y="15.197"/><use xlink:href="#8" y="17.368"/><use xlink:href="#9" y="19.539"/><use xlink:href="#10" y="21.71"/><use xlink:href="#11" y="23.881"/><use xlink:href="#12" y="26.052"/><use xlink:href="#13" y="28.223"/><use xlink:href="#14" y="30.394"/><use xlink:href="#15" y="32.565"/><use xlink:href="#16" y="34.736"/><use xlink:href="#18" y="39.078"/><use xlink:href="#19" y="41.249"/><use xlink:href="#20" y="43.42"/><use xlink:href="#21" y="45.591"/><use xlink:href="#22" y="47.762"/><use xlink:href="#23" y="49.933"/><use xlink:href="#24" y="52.104"/><use xlink:href="#25" y="54.275"/><use xlink:href="#17" y="56.446"/><use xlink:href="#1" y="58.617"/></svg><svg x="7296"><use xlink:href="#a"/><use xlink:href="#b" x="-.004" y="60.763"/><use xlink:href="#3"/><use xlink:href="#4" y="4.342"/><use xlink:href="#5" y="8.684"/><use xlink:href="#6" y="13.026"/><use xlink:href="#7" y="15.197"/><use xlink:href="#8" y="17.368"/><use xlink:href="#9" y="19.539"/><use xlink:href="#10" y="21.71"/><use xlink:href="#11" y="23.881"/><use xlink:href="#12" y="26.052"/><use xlink:href="#13" y="28.223"/><use xlink:href="#14" y="30.394"/><use xlink:href="#15" y="32.565"/><use xlink:href="#16" y="34.736"/><use xlink:href="#18" y="39.078"/><use xlink:href="#19" y="41.249"/><use xlink:href="#20" y="43.42"/><use xlink:href="#21" y="45.591"/><use xlink:href="#22" y="47.762"/><use xlink:href="#23" y="49.933"/><use xlink:href="#24" y="52.104"/><use xlink:href="#25" y="54.275"/><use xlink:href="#17" y="56.446"/><use xlink:href="#1" y="58.617"/></svg></svg></g></g></svg></svg>