<?xml version="1.0" encoding="UTF-8" standalone="no"?><!DOCTYPE svg PUBLIC "-//W3C//DTD SVG 1.1//EN" "http://www.w3.org/Graphics/SVG/1.1/DTD/svg11.dtd"><!-- Generated by graphviz version 2.40.1 (20161225.0304)
 --><!-- Title: bobydev Pages: 1 --><svg xmlns="http://www.w3.org/2000/svg" xmlns:xlink="http://www.w3.org/1999/xlink" width="172pt" height="200pt" viewBox="0.00 0.00 172.04 199.85">
<g id="graph0" class="graph" transform="scale(1 1) rotate(0) translate(4 195.8469)">
<title>bobydev</title>
<polygon fill="#ffffff" stroke="transparent" points="-4,4 -4,-195.8469 168.0385,-195.8469 168.0385,4 -4,4"/>
<text text-anchor="middle" x="82.0193" y="-175.2469" font-family="Times,serif" font-size="14.00" fill="#000000">elon is following</text>
<!-- bitcoin -->
<g id="node1" class="node">
<title>bitcoin</title>
<ellipse fill="none" stroke="#000000" cx="37.8596" cy="-37.8596" rx="37.7198" ry="37.7198"/>
<text text-anchor="middle" x="37.8596" y="-33.6596" font-family="Times,serif" font-size="14.00" fill="#000000">bitcoin</text>
</g>
<!-- bobby -->
<g id="node2" class="node">
<title>bobby</title>
<ellipse fill="none" stroke="#000000" cx="128.8596" cy="-37.8596" rx="35.3587" ry="35.3587"/>
<text text-anchor="middle" x="128.8596" y="-33.6596" font-family="Times,serif" font-size="14.00" fill="#000000">bobby</text>
</g>
<!-- elon -->
<g id="node3" class="node">
<title>elon</title>
<ellipse fill="none" stroke="#000000" cx="82.8596" cy="-139.3831" rx="27.8286" ry="27.8286"/>
<text text-anchor="middle" x="82.8596" y="-135.1831" font-family="Times,serif" font-size="14.00" fill="#000000">elon</text>
</g>
<!-- elon&#45;&gt;bitcoin -->
<g id="edge1" class="edge">
<title>elon-&gt;bitcoin</title>
<path fill="none" stroke="#000000" d="M71.6203,-114.0263C67.3518,-104.3962 62.3547,-93.1225 57.5336,-82.2455"/>
<polygon fill="#000000" stroke="#000000" points="60.6168,-80.5643 53.3648,-72.8404 54.2173,-83.4009 60.6168,-80.5643"/>
</g>
<!-- elon&#45;&gt;bobby -->
<g id="edge2" class="edge">
<title>elon-&gt;bobby</title>
<path fill="none" stroke="#000000" d="M94.3487,-114.0263C99.0942,-103.5529 104.7206,-91.1353 110.0385,-79.3984"/>
<polygon fill="#000000" stroke="#000000" points="113.2754,-80.7349 114.2146,-70.1818 106.8994,-77.8459 113.2754,-80.7349"/>
</g>
</g>
</svg>