<?xml version="1.0" encoding="UTF-8" standalone="no"?><!DOCTYPE svg PUBLIC "-//W3C//DTD SVG 1.1//EN" "http://www.w3.org/Graphics/SVG/1.1/DTD/svg11.dtd"><!-- Generated by graphviz version 2.40.1 (20161225.0304)
 --><!-- Title: bobydev Pages: 1 --><svg xmlns="http://www.w3.org/2000/svg" xmlns:xlink="http://www.w3.org/1999/xlink" width="114pt" height="378pt" viewBox="0.00 0.00 114.04 378.08">
<g id="graph0" class="graph" transform="scale(1 1) rotate(0) translate(4 374.0784)">
<title>bobydev</title>
<polygon fill="#ffffff" stroke="transparent" points="-4,4 -4,-374.0784 110.0385,-374.0784 110.0385,4 -4,4"/>
<!-- bitcoin -->
<g id="node1" class="node">
<title>bitcoin</title>
<ellipse fill="none" stroke="#000000" cx="37.8596" cy="-240.8911" rx="37.7198" ry="37.7198"/>
<text text-anchor="middle" x="37.8596" y="-236.6911" font-family="Times,serif" font-size="14.00" fill="#000000">bitcoin</text>
</g>
<!-- greta -->
<g id="node4" class="node">
<title>greta</title>
<ellipse fill="none" stroke="#000000" cx="41.8596" cy="-136.6946" rx="30.1746" ry="30.1746"/>
<text text-anchor="middle" x="41.8596" y="-132.4946" font-family="Times,serif" font-size="14.00" fill="#000000">greta</text>
</g>
<!-- bitcoin&#45;&gt;greta -->
<g id="edge1" class="edge">
<title>bitcoin-&gt;greta</title>
<path fill="none" stroke="#000000" d="M39.315,-202.979C39.6358,-194.6227 39.9769,-185.7392 40.3015,-177.2818"/>
<polygon fill="#000000" stroke="#000000" points="43.8007,-177.3678 40.687,-167.2409 36.8059,-177.0993 43.8007,-177.3678"/>
</g>
<!-- bobby -->
<g id="node2" class="node">
<title>bobby</title>
<ellipse fill="none" stroke="#000000" cx="70.8596" cy="-35.1789" rx="35.3587" ry="35.3587"/>
<text text-anchor="middle" x="70.8596" y="-30.9789" font-family="Times,serif" font-size="14.00" fill="#000000">bobby</text>
</g>
<!-- elon -->
<g id="node3" class="node">
<title>elon</title>
<ellipse fill="none" stroke="#000000" cx="70.8596" cy="-342.4146" rx="27.8286" ry="27.8286"/>
<text text-anchor="middle" x="70.8596" y="-338.2146" font-family="Times,serif" font-size="14.00" fill="#000000">elon</text>
</g>
<!-- elon&#45;&gt;bitcoin -->
<g id="edge2" class="edge">
<title>elon-&gt;bitcoin</title>
<path fill="none" stroke="#000000" d="M62.2754,-316.0055C59.3521,-307.0119 55.9942,-296.6817 52.7231,-286.618"/>
<polygon fill="#000000" stroke="#000000" points="56.0503,-285.5316 49.6304,-277.1034 49.3931,-287.6956 56.0503,-285.5316"/>
</g>
<!-- elon&#45;&gt;bobby -->
<g id="edge3" class="edge">
<title>elon-&gt;bobby</title>
<path fill="none" stroke="#000000" d="M78.0887,-315.6777C80.7913,-304.3759 83.5272,-291.0139 84.8596,-278.7508 92.3774,-209.5608 84.4772,-128.8461 77.8538,-79.9048"/>
<polygon fill="#000000" stroke="#000000" points="81.3145,-79.3793 76.4658,-69.9591 74.3817,-80.3469 81.3145,-79.3793"/>
</g>
<!-- greta&#45;&gt;bobby -->
<g id="edge4" class="edge">
<title>greta-&gt;bobby</title>
<path fill="none" stroke="#000000" d="M50.2476,-107.3321C52.7804,-98.4661 55.6177,-88.5341 58.3579,-78.9419"/>
<polygon fill="#000000" stroke="#000000" points="61.78,-79.7045 61.1615,-69.1277 55.0492,-77.7816 61.78,-79.7045"/>
</g>
</g>
</svg>